<?xml version="1.0" encoding="iso-8859-1"?>
<!-- Generator: Adobe Illustrator 24.3.0, SVG Export Plug-In . SVG Version: 6.00 Build 0)  -->
<svg version="1.1" id="Layer_1" xmlns="http://www.w3.org/2000/svg" xmlns:xlink="http://www.w3.org/1999/xlink" x="0px" y="0px"
	 viewBox="0 0 500 500" style="enable-background:new 0 0 500 500;" xml:space="preserve">
<g id="watermark_1_">
	<g>
		<g id="watermark" style="opacity:0.61;">
			<g>
				<g>
					<g>
						<g>
							<polygon style="fill:#FFFFFF;" points="213.765,461.172 208.204,474.017 205.268,474.017 199.726,461.172 202.938,461.172 
								206.846,470.347 210.81,461.172 							"/>
						</g>
						<g>
							<path style="fill:#FFFFFF;" d="M223.507,469.741h-7.469c0.275,1.23,1.321,1.982,2.826,1.982c1.046,0,1.798-0.312,2.477-0.954
								l1.523,1.651c-0.917,1.046-2.294,1.597-4.074,1.597c-3.413,0-5.634-2.147-5.634-5.083c0-2.954,2.257-5.083,5.267-5.083
								c2.899,0,5.138,1.945,5.138,5.12C223.562,469.191,223.526,469.503,223.507,469.741 M216.002,468.071h4.863
								c-0.202-1.248-1.138-2.055-2.422-2.055C217.139,466.016,216.204,466.805,216.002,468.071"/>
						</g>
						<g>
							<path style="fill:#FFFFFF;" d="M224.735,468.934c0-2.973,2.294-5.083,5.505-5.083c2.074,0,3.707,0.899,4.423,2.514
								l-2.22,1.193c-0.532-0.936-1.321-1.358-2.221-1.358c-1.45,0-2.587,1.009-2.587,2.734c0,1.725,1.138,2.734,2.587,2.734
								c0.899,0,1.688-0.404,2.221-1.358l2.22,1.211c-0.716,1.578-2.349,2.495-4.423,2.495
								C227.029,474.017,224.735,471.907,224.735,468.934"/>
						</g>
						<g>
							<path style="fill:#FFFFFF;" d="M242.828,473.393c-0.587,0.422-1.45,0.624-2.331,0.624c-2.33,0-3.688-1.193-3.688-3.542
								v-4.055h-1.523v-2.202h1.523v-2.404h2.863v2.404h2.459v2.202h-2.459v4.019c0,0.844,0.458,1.303,1.229,1.303
								c0.422,0,0.844-0.128,1.156-0.367L242.828,473.393z"/>
						</g>
					</g>
					<g>
						<path style="fill:#FFFFFF;" d="M262.474,463.997v2.643c-0.238-0.018-0.422-0.037-0.642-0.037
							c-1.578,0-2.624,0.862-2.624,2.753v4.661h-2.863v-9.873h2.734v1.303C259.776,464.493,260.951,463.997,262.474,463.997"/>
					</g>
					<g>
						<path style="fill:#FFFFFF;" d="M263.299,472.53l1.009-2.239c1.083,0.789,2.697,1.339,4.239,1.339
							c1.762,0,2.477-0.587,2.477-1.376c0-2.404-7.469-0.752-7.469-5.524c0-2.184,1.762-4,5.413-4c1.615,0,3.267,0.385,4.459,1.138
							l-0.918,2.257c-1.193-0.679-2.422-1.009-3.56-1.009c-1.761,0-2.44,0.66-2.44,1.468c0,2.367,7.468,0.734,7.468,5.45
							c0,2.147-1.78,3.982-5.45,3.982C266.492,474.017,264.437,473.411,263.299,472.53"/>
					</g>
					<g>
						<path style="fill:#FFFFFF;" d="M285.428,469.741h-7.469c0.275,1.23,1.321,1.982,2.826,1.982c1.046,0,1.798-0.312,2.477-0.954
							l1.523,1.651c-0.918,1.046-2.294,1.597-4.074,1.597c-3.413,0-5.634-2.147-5.634-5.083c0-2.954,2.257-5.083,5.267-5.083
							c2.9,0,5.138,1.945,5.138,5.12C285.484,469.191,285.447,469.503,285.428,469.741 M277.923,468.071h4.863
							c-0.202-1.248-1.138-2.055-2.422-2.055C279.061,466.016,278.125,466.805,277.923,468.071"/>
					</g>
					<g>
						<path style="fill:#FFFFFF;" d="M297.007,469.741h-7.469c0.275,1.23,1.321,1.982,2.826,1.982c1.046,0,1.798-0.312,2.477-0.954
							l1.523,1.651c-0.918,1.046-2.294,1.597-4.074,1.597c-3.413,0-5.634-2.147-5.634-5.083c0-2.954,2.257-5.083,5.267-5.083
							c2.899,0,5.138,1.945,5.138,5.12C297.062,469.191,297.025,469.503,297.007,469.741 M289.501,468.071h4.863
							c-0.202-1.248-1.138-2.055-2.422-2.055C290.639,466.016,289.703,466.805,289.501,468.071"/>
					</g>
					<g>
						<polygon style="fill:#FFFFFF;" points="303.208,470.145 301.831,471.503 301.831,474.017 298.969,474.017 298.969,460.401 
							301.831,460.401 301.831,468.108 306.016,464.144 309.429,464.144 305.318,468.328 309.796,474.017 306.327,474.017 						"/>
					</g>
					<g>
						<path style="fill:#FFFFFF;" d="M256.601,475.359L256.601,475.359l-2.86-2.86c-0.435,0.508-0.953,0.943-1.534,1.284
							c-0.092,0.069-0.186,0.136-0.283,0.199l3.027,3.027c0.456,0.456,1.195,0.456,1.65,0
							C257.057,476.554,257.057,475.815,256.601,475.359"/>
					</g>
					<g>
						<path style="fill:#FFFFFF;" d="M249.984,463.244c0.221-0.173,0.495-0.281,0.797-0.281c0.042,0,0.083,0.002,0.124,0.006
							c-0.214-0.156-0.478-0.249-0.764-0.249c-0.395,0-0.744,0.18-0.981,0.458c-0.051,0-0.1,0.006-0.151,0.008
							c0.039-0.077,0.064-0.162,0.064-0.255c0-0.234-0.143-0.434-0.346-0.519c0.087,0.126,0.138,0.279,0.138,0.445
							c0,0.122-0.031,0.237-0.081,0.341c-2.811,0.201-5.03,2.539-5.03,5.4c0,2.993,2.426,5.42,5.42,5.42
							c2.993,0,5.42-2.426,5.42-5.42C254.595,465.879,252.593,463.635,249.984,463.244 M247.983,464.656
							c0.435,0,0.844,0.112,1.199,0.309c0.374-0.245,0.82-0.387,1.299-0.387c0.711,0,1.348,0.312,1.784,0.806
							c-0.435-0.379-1.004-0.61-1.627-0.61c-0.449,0-0.87,0.12-1.234,0.329c-0.079,0.046-0.156,0.096-0.229,0.15
							c-0.065-0.048-0.133-0.093-0.204-0.134c-0.369-0.219-0.8-0.344-1.26-0.344c-0.3,0-0.588,0.054-0.854,0.152
							C247.196,464.754,247.578,464.656,247.983,464.656 M251.772,469.098c0.115,0.305,0.181,0.634,0.181,0.979
							c0,1.534-1.244,2.777-2.778,2.777c-1.534,0-2.777-1.243-2.777-2.777c0-0.345,0.066-0.674,0.181-0.979
							c-0.62-0.382-1.035-1.064-1.035-1.846c0-1.197,0.971-2.168,2.168-2.168c0.565,0,1.078,0.218,1.463,0.572
							c0.386-0.354,0.899-0.572,1.464-0.572c1.197,0,2.168,0.971,2.168,2.168C252.807,468.034,252.392,468.716,251.772,469.098"/>
					</g>
					<g>
						<path style="fill:#FFFFFF;" d="M251.666,467.061c0,0.497-0.404,0.901-0.901,0.901c-0.497,0-0.901-0.404-0.901-0.901
							s0.404-0.901,0.901-0.901c0.101,0,0.197,0.017,0.287,0.047c-0.03,0.062-0.045,0.132-0.045,0.204
							c0,0.273,0.221,0.494,0.494,0.494c0.05,0,0.099-0.008,0.146-0.022C251.66,466.941,251.666,467,251.666,467.061"/>
					</g>
					<g>
						<path style="fill:#FFFFFF;" d="M248.255,467.061c0,0.376-0.305,0.681-0.681,0.681c-0.376,0-0.681-0.305-0.681-0.681
							s0.305-0.681,0.681-0.681c0.076,0,0.149,0.013,0.217,0.035c-0.023,0.047-0.034,0.1-0.034,0.155
							c0,0.206,0.167,0.374,0.374,0.374c0.038,0,0.075-0.006,0.11-0.017C248.25,466.97,248.255,467.015,248.255,467.061"/>
					</g>
					<g>
						<g>
							<g>
								<rect x="242.908" y="467.83" style="fill:#FFFFFF;" width="0.616" height="0.616"/>
							</g>
							<g>
								<rect x="254.827" y="467.83" style="fill:#FFFFFF;" width="0.616" height="0.616"/>
							</g>
							<g>
								<path style="fill:#FFFFFF;" d="M255.205,468.082h-0.14c0-3.248-2.642-5.89-5.89-5.89c-3.248,0-5.89,2.642-5.89,5.89h-0.14
									c0-1.611,0.627-3.125,1.766-4.264c1.139-1.139,2.653-1.766,4.264-1.766c1.611,0,3.125,0.627,4.264,1.766
									C254.578,464.957,255.205,466.471,255.205,468.082"/>
							</g>
						</g>
						<g>
							<rect x="248.868" y="461.814" style="fill:#FFFFFF;" width="0.616" height="0.616"/>
						</g>
						<g>
							<rect x="244.95" y="462.052" style="fill:#FFFFFF;" width="8.45" height="0.14"/>
						</g>
						<g>
							<path style="fill:#FFFFFF;" d="M245.174,462.15c0,0.108-0.088,0.196-0.196,0.196c-0.108,0-0.196-0.088-0.196-0.196
								c0-0.108,0.088-0.196,0.196-0.196C245.086,461.954,245.174,462.042,245.174,462.15"/>
						</g>
						<g>
							<path style="fill:#FFFFFF;" d="M253.596,462.15c0,0.108-0.088,0.196-0.196,0.196c-0.108,0-0.196-0.088-0.196-0.196
								c0-0.108,0.088-0.196,0.196-0.196C253.509,461.954,253.596,462.042,253.596,462.15"/>
						</g>
					</g>
				</g>
				<g>
					<path style="fill:#FFFFFF;" d="M314.356,473.409c0,1.559-2.364,1.559-2.364,0C311.993,471.851,314.356,471.851,314.356,473.409
						z"/>
				</g>
				<g>
					<g>
						<g>
							<path style="fill:#FFFFFF;" d="M161.739,466.549l1.772,6.088l1.855-6.088h2.215l-2.823,8.14h-2.33l-0.837-2.396l-0.722-2.708
								l-0.722,2.708l-0.837,2.396h-2.33l-2.839-8.14h2.231l1.855,6.088l1.756-6.088H161.739z"/>
						</g>
						<g>
							<path style="fill:#FFFFFF;" d="M176.713,466.549l1.772,6.088l1.855-6.088h2.215l-2.823,8.14h-2.33l-0.837-2.396l-0.722-2.708
								l-0.722,2.708l-0.837,2.396h-2.33l-2.839-8.14h2.231l1.855,6.088l1.756-6.088H176.713z"/>
						</g>
						<g>
							<path style="fill:#FFFFFF;" d="M191.687,466.549l1.772,6.088l1.855-6.088h2.215l-2.823,8.14h-2.33l-0.837-2.396l-0.722-2.708
								l-0.722,2.708l-0.837,2.396h-2.33l-2.839-8.14h2.231l1.855,6.088l1.756-6.088H191.687z"/>
						</g>
					</g>
					<g>
						<path style="fill:#FFFFFF;" d="M200.908,473.52c0,1.559-2.364,1.559-2.364,0C198.545,471.962,200.908,471.962,200.908,473.52z
							"/>
					</g>
					<g>
						<path style="fill:#FFFFFF;" d="M322.71,473.409c-0.935,0.919-1.919,1.28-3.117,1.28c-2.346,0-4.3-1.411-4.3-4.282
							s1.953-4.284,4.3-4.284c1.149,0,2.035,0.329,2.921,1.199l-1.264,1.329c-0.476-0.428-1.066-0.64-1.623-0.64
							c-1.346,0-2.33,0.985-2.33,2.396c0,1.542,1.05,2.362,2.297,2.362c0.64,0,1.28-0.18,1.772-0.672L322.71,473.409z"/>
					</g>
					<g>
						<path style="fill:#FFFFFF;" d="M331.805,470.472c0,2.33-1.591,4.217-4.217,4.217c-2.626,0-4.201-1.887-4.201-4.217
							c0-2.314,1.609-4.217,4.185-4.217C330.149,466.255,331.805,468.158,331.805,470.472z M325.389,470.472
							c0,1.231,0.739,2.38,2.199,2.38c1.46,0,2.199-1.149,2.199-2.38c0-1.215-0.854-2.396-2.199-2.396
							C326.144,468.077,325.389,469.258,325.389,470.472z"/>
					</g>
					<g>
						<path style="fill:#FFFFFF;" d="M338.572,474.689v-4.332c0-1.068-0.559-2.035-1.658-2.035c-1.082,0-1.722,0.967-1.722,2.035
							v4.332h-2.003v-8.107h1.855l0.148,0.985c0.426-0.82,1.362-1.116,2.133-1.116c0.969,0,1.937,0.394,2.396,1.51
							c0.723-1.149,1.658-1.478,2.708-1.478c2.297,0,3.43,1.412,3.43,3.84v4.365h-2.003v-4.365c0-1.066-0.442-1.97-1.526-1.97
							c-1.082,0-1.756,0.935-1.756,2.003v4.332H338.572z"/>
					</g>
				</g>
			</g>
		</g>
		<g style="opacity:0.61;">
			<g>
				<g>
					<path style="fill:#FFFFFF;" d="M345.988,431.299c-0.006-1.224-0.959-2.121-2.189-2.14c-0.924-0.014-0.832,0.12-0.834-0.867
						c-0.003-1.097-0.007-2.194,0.003-3.292c0.003-0.379-0.112-0.691-0.362-0.976c-2.342-2.668-4.678-5.342-7.019-8.011
						c-0.12-0.137-0.275-0.244-0.414-0.366c-6.214,0-12.427,0-18.641,0c-0.794,0.293-1.14,0.868-1.138,1.709
						c0.01,3.748,0.004,7.496,0.004,11.243c0,0.556-0.003,0.589-0.55,0.551c-1.497-0.102-2.516,0.986-2.497,2.492
						c0.044,3.476,0.013,6.953,0.014,10.429c0.001,1.58,0.867,2.443,2.45,2.449c0.582,0.002,0.582,0.002,0.582,0.6
						c0,2.219-0.001,4.438,0.001,6.657c0.001,1.192,0.58,1.771,1.768,1.771c8.013,0.001,16.027,0.001,24.04,0
						c1.168,0,1.755-0.583,1.757-1.745c0.002-2.256,0-4.512,0.001-6.768c0-0.512,0.002-0.511,0.52-0.515
						c0.271-0.002,0.541,0.008,0.809-0.058c0.996-0.246,1.69-1.044,1.694-2.069C346.003,438.696,346.005,434.997,345.988,431.299z
						 M317.537,417.162c5.337,0,10.674,0,16.01,0c0.548,0,0.554,0.007,0.554,0.561c0.001,2.243-0.001,4.486,0.001,6.73
						c0.001,0.811,0.249,1.059,1.06,1.059c1.91,0.001,3.821,0,5.731,0.001c0.458,0,0.479,0.021,0.481,0.483
						c0.003,0.887,0.002,1.775,0,2.662c-0.001,0.477-0.024,0.498-0.504,0.499c-3.895,0.001-7.79,0-11.684,0
						c-3.882,0-7.765,0-11.647,0c-0.55,0-0.552-0.001-0.552-0.561c-0.001-3.624-0.001-7.247,0-10.871
						C316.987,417.166,316.991,417.162,317.537,417.162z M340.822,451.579c-3.883,0.001-7.766,0-11.65,0c-3.871,0-7.742,0-11.613,0
						c-0.572,0-0.574-0.002-0.574-0.579c-0.001-1.997-0.001-3.994,0.001-5.991c0-0.464,0.023-0.486,0.478-0.487
						c7.803-0.001,15.607-0.001,23.41,0c0.478,0,0.499,0.02,0.499,0.503c0.002,1.997,0.001,3.994,0,5.991
						C341.375,451.574,341.37,451.579,340.822,451.579z"/>
				</g>
				<g>
					<g>
						<rect x="327.418" y="417.053" style="fill:#FFFFFF;" width="1.757" height="1.054"/>
					</g>
					<g>
						<rect x="325.662" y="418.107" style="fill:#FFFFFF;" width="1.757" height="1.054"/>
					</g>
					<g>
						<rect x="327.418" y="419.161" style="fill:#FFFFFF;" width="1.757" height="1.054"/>
					</g>
					<g>
						<rect x="325.662" y="420.215" style="fill:#FFFFFF;" width="1.757" height="1.054"/>
					</g>
					<g>
						<rect x="327.418" y="421.269" style="fill:#FFFFFF;" width="1.757" height="1.054"/>
					</g>
					<g>
						<rect x="325.662" y="422.323" style="fill:#FFFFFF;" width="1.757" height="1.054"/>
					</g>
					<g>
						<rect x="327.418" y="423.378" style="fill:#FFFFFF;" width="1.757" height="1.054"/>
					</g>
					<g>
						<rect x="325.662" y="424.432" style="fill:#FFFFFF;" width="1.757" height="1.054"/>
					</g>
					<g>
						<rect x="327.418" y="425.486" style="fill:#FFFFFF;" width="1.757" height="1.054"/>
					</g>
					<g>
						<rect x="325.662" y="426.54" style="fill:#FFFFFF;" width="1.757" height="1.054"/>
					</g>
					<g>
						<rect x="327.418" y="427.594" style="fill:#FFFFFF;" width="1.757" height="1.054"/>
					</g>
					<g>
						<rect x="325.662" y="428.648" style="fill:#FFFFFF;" width="1.757" height="1.054"/>
					</g>
				</g>
			</g>
			<g>
				<path style="fill:#FFFFFF;" d="M187.637,431.299c-0.006-1.224-0.959-2.121-2.189-2.14c-0.924-0.014-0.832,0.12-0.834-0.867
					c-0.003-1.097-0.007-2.194,0.003-3.292c0.003-0.379-0.112-0.691-0.362-0.976c-2.342-2.668-4.678-5.342-7.019-8.011
					c-0.12-0.137-0.275-0.244-0.414-0.366c-6.214,0-12.427,0-18.641,0c-0.794,0.293-1.14,0.868-1.138,1.709
					c0.01,3.748,0.004,7.496,0.004,11.243c0,0.556-0.003,0.589-0.55,0.551c-1.497-0.102-2.516,0.986-2.497,2.492
					c0.044,3.476,0.013,6.953,0.014,10.429c0.001,1.58,0.867,2.443,2.45,2.449c0.582,0.002,0.582,0.002,0.582,0.6
					c0,2.219-0.001,4.438,0.001,6.657c0.001,1.192,0.58,1.771,1.768,1.771c8.013,0.001,16.027,0.001,24.04,0
					c1.168,0,1.755-0.583,1.757-1.745c0.002-2.256,0-4.512,0.001-6.768c0-0.512,0.002-0.511,0.52-0.515
					c0.271-0.002,0.541,0.008,0.809-0.058c0.996-0.246,1.69-1.044,1.694-2.069C187.652,438.696,187.655,434.997,187.637,431.299z
					 M159.187,417.162c5.337,0,10.674,0,16.01,0c0.548,0,0.554,0.007,0.554,0.561c0.001,2.243-0.001,4.486,0.001,6.73
					c0.001,0.811,0.249,1.059,1.06,1.059c1.91,0.001,3.821,0,5.731,0.001c0.458,0,0.479,0.021,0.481,0.483
					c0.003,0.887,0.002,1.775,0,2.662c-0.001,0.477-0.024,0.498-0.504,0.499c-3.895,0.001-7.79,0-11.684,0
					c-3.882,0-7.765,0-11.647,0c-0.55,0-0.552-0.001-0.552-0.561c-0.001-3.624-0.001-7.247,0-10.871
					C158.636,417.166,158.64,417.162,159.187,417.162z M182.472,451.579c-3.883,0.001-7.766,0-11.65,0c-3.871,0-7.742,0-11.613,0
					c-0.572,0-0.574-0.002-0.574-0.579c-0.001-1.997-0.001-3.994,0.001-5.991c0-0.464,0.023-0.486,0.478-0.487
					c7.803-0.001,15.607-0.001,23.41,0c0.478,0,0.499,0.02,0.499,0.503c0.002,1.997,0.001,3.994,0,5.991
					C183.024,451.574,183.019,451.579,182.472,451.579z"/>
			</g>
			<g>
				<path style="fill:#FFFFFF;" d="M159.779,440.669v-7.897h2.779c0.375,0,0.726,0.061,1.053,0.182
					c0.327,0.121,0.612,0.292,0.855,0.513c0.242,0.221,0.434,0.483,0.573,0.789c0.14,0.305,0.21,0.642,0.21,1.009
					c0,0.375-0.07,0.715-0.21,1.02c-0.14,0.305-0.331,0.568-0.573,0.789c-0.243,0.221-0.528,0.392-0.855,0.513
					c-0.327,0.121-0.678,0.182-1.053,0.182h-1.29v2.901H159.779z M162.58,436.356c0.39,0,0.684-0.111,0.882-0.331
					c0.199-0.22,0.298-0.474,0.298-0.761c0-0.14-0.024-0.276-0.072-0.408c-0.048-0.132-0.121-0.248-0.221-0.347
					c-0.099-0.099-0.223-0.178-0.37-0.237c-0.147-0.059-0.32-0.089-0.518-0.089h-1.312v2.173H162.58z"/>
				<path style="fill:#FFFFFF;" d="M166.308,432.771h1.731l3.177,5.294h0.088l-0.088-1.522v-3.772h1.478v7.897h-1.566l-3.353-5.592
					h-0.088l0.088,1.522v4.07h-1.467V432.771z"/>
				<path style="fill:#FFFFFF;" d="M177.922,436.334h3.872c0.022,0.089,0.04,0.195,0.055,0.32c0.014,0.125,0.022,0.25,0.022,0.375
					c0,0.507-0.077,0.985-0.231,1.434c-0.154,0.449-0.397,0.849-0.728,1.202c-0.353,0.375-0.776,0.666-1.268,0.871
					c-0.493,0.206-1.055,0.309-1.688,0.309c-0.574,0-1.114-0.103-1.622-0.309c-0.507-0.206-0.948-0.492-1.323-0.86
					c-0.375-0.367-0.673-0.803-0.894-1.307c-0.221-0.504-0.331-1.053-0.331-1.649c0-0.595,0.11-1.145,0.331-1.649
					c0.221-0.504,0.518-0.939,0.894-1.307c0.375-0.367,0.816-0.654,1.323-0.86c0.507-0.206,1.048-0.309,1.622-0.309
					c0.64,0,1.211,0.11,1.715,0.331c0.504,0.221,0.935,0.526,1.296,0.915l-1.025,1.004c-0.258-0.272-0.544-0.48-0.861-0.623
					c-0.316-0.143-0.695-0.215-1.136-0.215c-0.361,0-0.703,0.065-1.026,0.193c-0.324,0.129-0.607,0.311-0.85,0.546
					c-0.242,0.235-0.436,0.52-0.579,0.855c-0.143,0.335-0.215,0.708-0.215,1.119c0,0.412,0.072,0.785,0.215,1.12
					c0.143,0.335,0.338,0.62,0.584,0.855c0.246,0.235,0.531,0.418,0.855,0.546c0.323,0.129,0.669,0.193,1.037,0.193
					c0.419,0,0.773-0.061,1.064-0.182c0.29-0.121,0.538-0.278,0.744-0.469c0.148-0.132,0.275-0.3,0.381-0.502
					c0.106-0.202,0.189-0.428,0.248-0.678h-2.482V436.334z"/>
			</g>
			<g>
				<path style="fill:#FFFFFF;" d="M224.019,431.299c-0.006-1.224-0.959-2.121-2.189-2.14c-0.924-0.014-0.832,0.12-0.834-0.867
					c-0.003-1.097-0.007-2.194,0.003-3.292c0.003-0.379-0.112-0.691-0.362-0.976c-2.342-2.668-4.678-5.342-7.019-8.011
					c-0.12-0.137-0.275-0.244-0.414-0.366c-6.214,0-12.427,0-18.641,0c-0.794,0.293-1.14,0.868-1.138,1.709
					c0.01,3.748,0.004,7.496,0.004,11.243c0,0.556-0.003,0.589-0.55,0.551c-1.497-0.102-2.516,0.986-2.497,2.492
					c0.044,3.476,0.013,6.953,0.014,10.429c0.001,1.58,0.867,2.443,2.45,2.449c0.582,0.002,0.582,0.002,0.582,0.6
					c0,2.219-0.001,4.438,0.001,6.657c0.001,1.192,0.58,1.771,1.768,1.771c8.013,0.001,16.027,0.001,24.04,0
					c1.168,0,1.755-0.583,1.757-1.745c0.002-2.256,0-4.512,0.001-6.768c0-0.512,0.002-0.511,0.52-0.515
					c0.271-0.002,0.541,0.008,0.809-0.058c0.997-0.246,1.69-1.044,1.694-2.069C224.034,438.696,224.036,434.997,224.019,431.299z
					 M195.568,417.162c5.337,0,10.674,0,16.01,0c0.548,0,0.554,0.007,0.554,0.561c0.001,2.243-0.001,4.486,0.001,6.73
					c0.001,0.811,0.249,1.059,1.06,1.059c1.91,0.001,3.821,0,5.731,0.001c0.458,0,0.479,0.021,0.481,0.483
					c0.003,0.887,0.002,1.775,0,2.662c-0.001,0.477-0.024,0.498-0.504,0.499c-3.895,0.001-7.79,0-11.684,0
					c-3.882,0-7.765,0-11.647,0c-0.55,0-0.552-0.001-0.552-0.561c-0.001-3.624-0.001-7.247,0-10.871
					C195.018,417.166,195.022,417.162,195.568,417.162z M218.854,451.579c-3.883,0.001-7.766,0-11.65,0c-3.871,0-7.742,0-11.613,0
					c-0.572,0-0.574-0.002-0.574-0.579c-0.001-1.997-0.001-3.994,0.001-5.991c0-0.464,0.023-0.486,0.478-0.487
					c7.803-0.001,15.607-0.001,23.41,0c0.478,0,0.499,0.02,0.499,0.503c0.002,1.997,0.001,3.994,0,5.991
					C219.406,451.574,219.401,451.579,218.854,451.579z"/>
			</g>
			<g>
				<path style="fill:#FFFFFF;" d="M205.111,432.771h1.699l2.967,7.897h-1.644l-0.651-1.886h-3.044l-0.651,1.886h-1.643
					L205.111,432.771z M206.997,437.415l-0.706-1.974l-0.287-0.96h-0.088l-0.287,0.96l-0.706,1.974H206.997z"/>
				<path style="fill:#FFFFFF;" d="M211.331,434.536c-0.125,0-0.245-0.024-0.359-0.072c-0.114-0.048-0.213-0.114-0.298-0.199
					c-0.084-0.084-0.151-0.182-0.198-0.292c-0.048-0.11-0.072-0.232-0.072-0.364s0.024-0.254,0.072-0.364
					c0.048-0.11,0.114-0.208,0.198-0.292c0.084-0.084,0.184-0.151,0.298-0.198c0.114-0.048,0.233-0.072,0.359-0.072
					c0.257,0,0.478,0.09,0.662,0.27c0.184,0.181,0.276,0.399,0.276,0.656s-0.092,0.476-0.276,0.656
					C211.809,434.446,211.589,434.536,211.331,434.536z M210.615,440.669v-5.404h1.445v5.404H210.615z"/>
			</g>
			<g>
				<path style="fill:#FFFFFF;" d="M261.044,431.299c-0.006-1.224-0.959-2.121-2.189-2.14c-0.924-0.014-0.832,0.12-0.834-0.867
					c-0.003-1.097-0.007-2.194,0.003-3.292c0.003-0.379-0.112-0.691-0.362-0.976c-2.342-2.668-4.678-5.342-7.019-8.011
					c-0.12-0.137-0.275-0.244-0.414-0.366c-6.214,0-12.427,0-18.641,0c-0.794,0.293-1.14,0.868-1.138,1.709
					c0.01,3.748,0.004,7.496,0.004,11.243c0,0.556-0.003,0.589-0.55,0.551c-1.497-0.102-2.516,0.986-2.497,2.492
					c0.044,3.476,0.013,6.953,0.014,10.429c0.001,1.58,0.867,2.443,2.45,2.449c0.582,0.002,0.582,0.002,0.582,0.6
					c0,2.219-0.001,4.438,0.001,6.657c0.001,1.192,0.58,1.771,1.768,1.771c8.013,0.001,16.027,0.001,24.04,0
					c1.168,0,1.755-0.583,1.757-1.745c0.002-2.256,0-4.512,0.001-6.768c0-0.512,0.002-0.511,0.52-0.515
					c0.271-0.002,0.541,0.008,0.809-0.058c0.996-0.246,1.69-1.044,1.694-2.069C261.059,438.696,261.061,434.997,261.044,431.299z
					 M232.593,417.162c5.337,0,10.674,0,16.01,0c0.548,0,0.554,0.007,0.554,0.561c0.001,2.243-0.001,4.486,0.001,6.73
					c0.001,0.811,0.249,1.059,1.06,1.059c1.91,0.001,3.821,0,5.731,0.001c0.458,0,0.479,0.021,0.481,0.483
					c0.003,0.887,0.002,1.775,0,2.662c-0.001,0.477-0.024,0.498-0.504,0.499c-3.895,0.001-7.79,0-11.684,0
					c-3.882,0-7.765,0-11.647,0c-0.55,0-0.552-0.001-0.552-0.561c-0.001-3.624-0.001-7.247,0-10.871
					C232.042,417.166,232.047,417.162,232.593,417.162z M255.878,451.579c-3.883,0.001-7.766,0-11.65,0c-3.871,0-7.742,0-11.613,0
					c-0.572,0-0.574-0.002-0.574-0.579c-0.001-1.997-0.001-3.994,0.001-5.991c0-0.464,0.023-0.486,0.478-0.487
					c7.803-0.001,15.607-0.001,23.41,0c0.478,0,0.499,0.02,0.499,0.503c0.002,1.997,0.001,3.994,0,5.991
					C256.431,451.574,256.426,451.579,255.878,451.579z"/>
			</g>
			<g>
				<path style="fill:#FFFFFF;" d="M236.361,440.845c-0.338,0-0.662-0.048-0.971-0.143c-0.309-0.095-0.592-0.239-0.849-0.43
					c-0.257-0.191-0.481-0.425-0.673-0.7c-0.191-0.276-0.342-0.597-0.452-0.965l1.401-0.551c0.103,0.397,0.283,0.726,0.54,0.987
					c0.257,0.261,0.596,0.392,1.015,0.392c0.154,0,0.303-0.02,0.447-0.061c0.143-0.04,0.272-0.099,0.386-0.176
					s0.204-0.175,0.27-0.292c0.066-0.118,0.099-0.254,0.099-0.408c0-0.147-0.026-0.279-0.077-0.397
					c-0.051-0.117-0.138-0.227-0.259-0.331c-0.121-0.103-0.28-0.202-0.475-0.298c-0.195-0.095-0.435-0.195-0.722-0.298l-0.485-0.176
					c-0.213-0.073-0.429-0.173-0.645-0.298c-0.217-0.125-0.413-0.276-0.59-0.452c-0.177-0.176-0.322-0.384-0.436-0.623
					c-0.114-0.239-0.171-0.509-0.171-0.81c0-0.309,0.06-0.597,0.182-0.866c0.121-0.268,0.294-0.503,0.518-0.706
					c0.224-0.202,0.492-0.36,0.805-0.474s0.66-0.171,1.042-0.171c0.397,0,0.74,0.053,1.031,0.16
					c0.291,0.107,0.537,0.243,0.739,0.408c0.202,0.165,0.366,0.348,0.491,0.546c0.125,0.199,0.217,0.386,0.276,0.563l-1.312,0.551
					c-0.074-0.221-0.208-0.419-0.402-0.596c-0.195-0.176-0.462-0.265-0.8-0.265c-0.324,0-0.592,0.075-0.805,0.226
					c-0.213,0.151-0.32,0.348-0.32,0.59c0,0.235,0.103,0.436,0.309,0.601c0.206,0.165,0.533,0.325,0.982,0.48l0.497,0.165
					c0.316,0.111,0.605,0.237,0.866,0.381c0.261,0.143,0.485,0.314,0.673,0.513c0.187,0.199,0.331,0.425,0.43,0.678
					c0.1,0.254,0.149,0.546,0.149,0.877c0,0.412-0.083,0.767-0.248,1.064c-0.165,0.298-0.377,0.542-0.634,0.734
					c-0.258,0.191-0.548,0.335-0.872,0.43C236.986,440.797,236.67,440.845,236.361,440.845z"/>
				<path style="fill:#FFFFFF;" d="M239.516,432.771h1.61l1.633,4.754l0.287,1.015h0.088l0.309-1.015l1.699-4.754h1.61l-2.879,7.897
					h-1.566L239.516,432.771z"/>
				<path style="fill:#FFFFFF;" d="M251.097,436.334h3.871c0.022,0.089,0.04,0.195,0.055,0.32c0.015,0.125,0.023,0.25,0.023,0.375
					c0,0.507-0.078,0.985-0.232,1.434c-0.154,0.449-0.397,0.849-0.728,1.202c-0.353,0.375-0.775,0.666-1.268,0.871
					c-0.493,0.206-1.055,0.309-1.688,0.309c-0.574,0-1.114-0.103-1.621-0.309c-0.507-0.206-0.949-0.492-1.324-0.86
					c-0.375-0.367-0.673-0.803-0.894-1.307c-0.22-0.504-0.331-1.053-0.331-1.649c0-0.595,0.11-1.145,0.331-1.649
					c0.221-0.504,0.518-0.939,0.894-1.307c0.375-0.367,0.816-0.654,1.324-0.86c0.507-0.206,1.047-0.309,1.621-0.309
					c0.64,0,1.211,0.11,1.715,0.331c0.504,0.221,0.936,0.526,1.296,0.915l-1.026,1.004c-0.257-0.272-0.544-0.48-0.861-0.623
					c-0.316-0.143-0.694-0.215-1.136-0.215c-0.36,0-0.702,0.065-1.026,0.193c-0.323,0.129-0.607,0.311-0.849,0.546
					c-0.243,0.235-0.436,0.52-0.579,0.855c-0.143,0.335-0.215,0.708-0.215,1.119c0,0.412,0.072,0.785,0.215,1.12
					c0.143,0.335,0.338,0.62,0.585,0.855c0.246,0.235,0.531,0.418,0.854,0.546c0.324,0.129,0.669,0.193,1.037,0.193
					c0.419,0,0.774-0.061,1.064-0.182c0.29-0.121,0.539-0.278,0.745-0.469c0.147-0.132,0.274-0.3,0.38-0.502
					c0.107-0.202,0.189-0.428,0.248-0.678h-2.482V436.334z"/>
			</g>
			<g>
				<path style="fill:#FFFFFF;" d="M297.3,431.299c-0.006-1.224-0.959-2.121-2.189-2.14c-0.924-0.014-0.832,0.12-0.834-0.867
					c-0.003-1.097-0.007-2.194,0.003-3.292c0.003-0.379-0.112-0.691-0.362-0.976c-2.342-2.668-4.678-5.342-7.019-8.011
					c-0.12-0.137-0.275-0.244-0.414-0.366c-6.214,0-12.427,0-18.641,0c-0.794,0.293-1.14,0.868-1.138,1.709
					c0.01,3.748,0.004,7.496,0.004,11.243c0,0.556-0.003,0.589-0.55,0.551c-1.497-0.102-2.516,0.986-2.497,2.492
					c0.044,3.476,0.013,6.953,0.014,10.429c0.001,1.58,0.867,2.443,2.45,2.449c0.582,0.002,0.582,0.002,0.582,0.6
					c0,2.219-0.001,4.438,0.001,6.657c0.001,1.192,0.58,1.771,1.768,1.771c8.013,0.001,16.027,0.001,24.04,0
					c1.168,0,1.755-0.583,1.757-1.745c0.002-2.256,0-4.512,0.001-6.768c0-0.512,0.002-0.511,0.52-0.515
					c0.271-0.002,0.541,0.008,0.809-0.058c0.996-0.246,1.69-1.044,1.694-2.069C297.315,438.696,297.318,434.997,297.3,431.299z
					 M268.85,417.162c5.337,0,10.674,0,16.01,0c0.548,0,0.554,0.007,0.554,0.561c0.001,2.243-0.001,4.486,0.001,6.73
					c0.001,0.811,0.249,1.059,1.06,1.059c1.91,0.001,3.821,0,5.731,0.001c0.458,0,0.479,0.021,0.481,0.483
					c0.003,0.887,0.002,1.775,0,2.662c-0.001,0.477-0.024,0.498-0.504,0.499c-3.895,0.001-7.79,0-11.684,0
					c-3.882,0-7.765,0-11.647,0c-0.55,0-0.552-0.001-0.552-0.561c-0.001-3.624-0.001-7.247,0-10.871
					C268.299,417.166,268.303,417.162,268.85,417.162z M292.135,451.579c-3.883,0.001-7.766,0-11.65,0c-3.871,0-7.742,0-11.613,0
					c-0.572,0-0.574-0.002-0.574-0.579c-0.001-1.997-0.001-3.994,0.001-5.991c0-0.464,0.023-0.486,0.478-0.487
					c7.803-0.001,15.607-0.001,23.41,0c0.478,0,0.499,0.02,0.499,0.503c0.001,1.997,0.001,3.994,0,5.991
					C292.687,451.574,292.682,451.579,292.135,451.579z"/>
			</g>
			<g>
				<path style="fill:#FFFFFF;" d="M272.966,434.183v1.831h3.165v1.412h-3.165v1.831h3.518v1.412h-5.007v-7.897h5.007v1.412H272.966
					z"/>
				<path style="fill:#FFFFFF;" d="M277.852,440.669v-7.897h2.779c0.375,0,0.726,0.061,1.053,0.182
					c0.327,0.121,0.612,0.292,0.855,0.513c0.243,0.221,0.434,0.483,0.574,0.789c0.14,0.305,0.209,0.642,0.209,1.009
					c0,0.375-0.07,0.715-0.209,1.02c-0.14,0.305-0.331,0.568-0.574,0.789c-0.243,0.221-0.528,0.392-0.855,0.513
					c-0.327,0.121-0.678,0.182-1.053,0.182h-1.29v2.901H277.852z M280.653,436.356c0.389,0,0.684-0.111,0.882-0.331
					c0.199-0.22,0.298-0.474,0.298-0.761c0-0.14-0.024-0.276-0.072-0.408c-0.048-0.132-0.121-0.248-0.221-0.347
					c-0.099-0.099-0.222-0.178-0.37-0.237c-0.147-0.059-0.32-0.089-0.518-0.089h-1.312v2.173H280.653z"/>
				<path style="fill:#FFFFFF;" d="M286.797,440.845c-0.338,0-0.662-0.048-0.971-0.143c-0.309-0.095-0.592-0.239-0.849-0.43
					c-0.257-0.191-0.482-0.425-0.673-0.7c-0.191-0.276-0.342-0.597-0.452-0.965l1.401-0.551c0.103,0.397,0.283,0.726,0.541,0.987
					c0.257,0.261,0.595,0.392,1.015,0.392c0.154,0,0.303-0.02,0.447-0.061c0.143-0.04,0.272-0.099,0.386-0.176
					c0.114-0.077,0.204-0.175,0.27-0.292c0.066-0.118,0.1-0.254,0.1-0.408c0-0.147-0.026-0.279-0.077-0.397
					c-0.051-0.117-0.138-0.227-0.259-0.331c-0.121-0.103-0.279-0.202-0.474-0.298c-0.195-0.095-0.436-0.195-0.723-0.298
					l-0.485-0.176c-0.213-0.073-0.428-0.173-0.645-0.298c-0.217-0.125-0.414-0.276-0.59-0.452c-0.176-0.176-0.322-0.384-0.436-0.623
					c-0.114-0.239-0.171-0.509-0.171-0.81c0-0.309,0.061-0.597,0.182-0.866c0.121-0.268,0.294-0.503,0.518-0.706
					c0.224-0.202,0.493-0.36,0.805-0.474c0.312-0.114,0.66-0.171,1.042-0.171c0.397,0,0.741,0.053,1.031,0.16
					c0.29,0.107,0.537,0.243,0.739,0.408c0.202,0.165,0.365,0.348,0.491,0.546c0.125,0.199,0.217,0.386,0.276,0.563l-1.312,0.551
					c-0.074-0.221-0.208-0.419-0.403-0.596c-0.195-0.176-0.462-0.265-0.799-0.265c-0.324,0-0.592,0.075-0.805,0.226
					c-0.213,0.151-0.32,0.348-0.32,0.59c0,0.235,0.103,0.436,0.309,0.601c0.206,0.165,0.533,0.325,0.982,0.48l0.496,0.165
					c0.316,0.111,0.605,0.237,0.866,0.381c0.261,0.143,0.485,0.314,0.673,0.513c0.187,0.199,0.331,0.425,0.43,0.678
					c0.099,0.254,0.149,0.546,0.149,0.877c0,0.412-0.083,0.767-0.248,1.064c-0.165,0.298-0.377,0.542-0.634,0.734
					c-0.258,0.191-0.548,0.335-0.872,0.43C287.422,440.797,287.105,440.845,286.797,440.845z"/>
			</g>
			<g>
				<path style="fill:#FFFFFF;" d="M321.394,439.168l4.004-4.985h-3.827v-1.412h5.559v1.5l-3.96,4.985h4.004v1.412h-5.779V439.168z"
					/>
				<path style="fill:#FFFFFF;" d="M328.409,432.771h1.489v7.897h-1.489V432.771z"/>
				<path style="fill:#FFFFFF;" d="M331.486,440.669v-7.897h2.779c0.375,0,0.726,0.061,1.053,0.182
					c0.327,0.121,0.612,0.292,0.855,0.513s0.434,0.483,0.574,0.789c0.14,0.305,0.209,0.642,0.209,1.009
					c0,0.375-0.07,0.715-0.209,1.02c-0.14,0.305-0.331,0.568-0.574,0.789c-0.243,0.221-0.528,0.392-0.855,0.513
					c-0.327,0.121-0.678,0.182-1.053,0.182h-1.29v2.901H331.486z M334.288,436.356c0.389,0,0.684-0.111,0.882-0.331
					c0.199-0.22,0.298-0.474,0.298-0.761c0-0.14-0.024-0.276-0.072-0.408c-0.048-0.132-0.121-0.248-0.221-0.347
					c-0.099-0.099-0.222-0.178-0.37-0.237c-0.147-0.059-0.32-0.089-0.518-0.089h-1.312v2.173H334.288z"/>
			</g>
		</g>
		<g style="opacity:0.61;">
			<path style="fill:#FFFFFF;" d="M300.133,433.27h9.067v2.242h-9.067V433.27z M300.133,437.136h9.067v2.243h-9.067V437.136z"/>
		</g>
	</g>
	<g style="opacity:0.61;">
		<path style="fill:#FFFFFF;" d="M156.756,478.878h1.607c1.263,0,2.114,0.812,2.114,1.974c0,1.161-0.851,1.973-2.114,1.973h-1.607
			V478.878z M158.34,482.464c1.049,0,1.725-0.665,1.725-1.612c0-0.947-0.677-1.613-1.725-1.613h-1.167v3.225H158.34z"/>
		<path style="fill:#FFFFFF;" d="M165.139,480.851c0-1.15,0.879-2.007,2.075-2.007c1.184,0,2.069,0.851,2.069,2.007
			c0,1.156-0.885,2.007-2.069,2.007C166.019,482.858,165.139,482.002,165.139,480.851z M168.866,480.851
			c0-0.942-0.705-1.635-1.652-1.635c-0.953,0-1.663,0.693-1.663,1.635c0,0.941,0.71,1.635,1.663,1.635
			C168.162,482.486,168.866,481.793,168.866,480.851z"/>
		<path style="fill:#FFFFFF;" d="M179.596,478.878l-1.331,3.947h-0.44l-1.156-3.366l-1.161,3.366h-0.434l-1.331-3.947h0.429
			l1.139,3.394l1.178-3.394h0.389l1.161,3.411l1.156-3.411H179.596z"/>
		<path style="fill:#FFFFFF;" d="M187.731,478.878v3.947h-0.344l-2.537-3.202v3.202h-0.417v-3.947h0.344l2.543,3.203v-3.203H187.731
			z"/>
		<path style="fill:#FFFFFF;" d="M193.093,478.878h0.417v3.586h2.21v0.361h-2.627V478.878z"/>
		<path style="fill:#FFFFFF;" d="M200.061,480.851c0-1.15,0.879-2.007,2.075-2.007c1.184,0,2.069,0.851,2.069,2.007
			c0,1.156-0.885,2.007-2.069,2.007C200.941,482.858,200.061,482.002,200.061,480.851z M203.788,480.851
			c0-0.942-0.705-1.635-1.652-1.635c-0.953,0-1.663,0.693-1.663,1.635c0,0.941,0.71,1.635,1.663,1.635
			C203.083,482.486,203.788,481.793,203.788,480.851z"/>
		<path style="fill:#FFFFFF;" d="M211.636,481.77h-2.199l-0.474,1.054h-0.434l1.804-3.947h0.412l1.804,3.947h-0.44L211.636,481.77z
			 M211.484,481.432l-0.947-2.12l-0.947,2.12H211.484z"/>
		<path style="fill:#FFFFFF;" d="M217.28,478.878h1.607c1.263,0,2.114,0.812,2.114,1.974c0,1.161-0.851,1.973-2.114,1.973h-1.607
			V478.878z M218.864,482.464c1.049,0,1.725-0.665,1.725-1.612c0-0.947-0.677-1.613-1.725-1.613h-1.167v3.225H218.864z"/>
		<path style="fill:#FFFFFF;" d="M234.041,481.77h-2.199l-0.474,1.054h-0.434l1.804-3.947h0.412l1.804,3.947h-0.44L234.041,481.77z
			 M233.889,481.432l-0.947-2.12l-0.947,2.12H233.889z"/>
		<path style="fill:#FFFFFF;" d="M239.685,478.878h0.417v3.586h2.21v0.361h-2.627V478.878z"/>
		<path style="fill:#FFFFFF;" d="M247.082,478.878h0.417v3.586h2.21v0.361h-2.627V478.878z"/>
		<path style="fill:#FFFFFF;" d="M260.449,479.239v1.551h2.041v0.361h-2.041v1.675h-0.417v-3.947h2.706v0.361H260.449z"/>
		<path style="fill:#FFFFFF;" d="M267.678,478.878h0.417v3.947h-0.417V478.878z"/>
		<path style="fill:#FFFFFF;" d="M273.456,478.878h0.417v3.586h2.21v0.361h-2.627V478.878z"/>
		<path style="fill:#FFFFFF;" d="M283.644,482.464v0.361h-2.791v-3.947h2.706v0.361h-2.289v1.404h2.041v0.355h-2.041v1.466H283.644z
			"/>
		<path style="fill:#FFFFFF;" d="M294.672,479.239v1.551h2.041v0.361h-2.041v1.675h-0.417v-3.947h2.706v0.361H294.672z"/>
		<path style="fill:#FFFFFF;" d="M301.5,480.851c0-1.15,0.879-2.007,2.075-2.007c1.184,0,2.069,0.851,2.069,2.007
			c0,1.156-0.885,2.007-2.069,2.007C302.379,482.858,301.5,482.002,301.5,480.851z M305.226,480.851
			c0-0.942-0.705-1.635-1.652-1.635c-0.953,0-1.663,0.693-1.663,1.635c0,0.941,0.71,1.635,1.663,1.635
			C304.522,482.486,305.226,481.793,305.226,480.851z"/>
		<path style="fill:#FFFFFF;" d="M313.351,482.825l-0.902-1.269c-0.102,0.011-0.203,0.017-0.316,0.017h-1.06v1.252h-0.417v-3.947
			h1.477c1.004,0,1.613,0.507,1.613,1.353c0,0.62-0.327,1.054-0.902,1.24l0.964,1.353H313.351z M313.328,480.231
			c0-0.632-0.417-0.992-1.207-0.992h-1.048v1.979h1.048C312.911,481.218,313.328,480.851,313.328,480.231z"/>
		<path style="fill:#FFFFFF;" d="M322.907,478.878v3.947h-0.4v-3.158l-1.551,2.656h-0.197l-1.551-2.639v3.14h-0.4v-3.947h0.344
			l1.714,2.926l1.697-2.926H322.907z"/>
		<path style="fill:#FFFFFF;" d="M330.744,481.77h-2.199l-0.473,1.054h-0.434l1.804-3.947h0.411l1.804,3.947h-0.44L330.744,481.77z
			 M330.592,481.432l-0.947-2.12l-0.947,2.12H330.592z"/>
		<path style="fill:#FFFFFF;" d="M336.957,479.239h-1.387v-0.361h3.192v0.361h-1.387v3.586h-0.417V479.239z"/>
		<path style="fill:#FFFFFF;" d="M343.063,482.346l0.164-0.321c0.282,0.276,0.784,0.479,1.302,0.479c0.739,0,1.06-0.31,1.06-0.699
			c0-1.083-2.43-0.417-2.43-1.877c0-0.581,0.451-1.083,1.455-1.083c0.446,0,0.908,0.13,1.224,0.35l-0.141,0.333
			c-0.338-0.22-0.733-0.327-1.083-0.327c-0.722,0-1.043,0.321-1.043,0.716c0,1.083,2.43,0.429,2.43,1.866
			c0,0.581-0.462,1.077-1.472,1.077C343.937,482.858,343.356,482.65,343.063,482.346z"/>
	</g>
</g>
<g>
</g>
<g>
	<rect x="25" y="99.375" style="fill-rule:evenodd;clip-rule:evenodd;fill:#8F2A85;" width="450" height="301.25"/>
	<polygon style="fill-rule:evenodd;clip-rule:evenodd;fill:#FFFFFF;" points="338.567,148.317 285.13,201.754 288.879,231.754 
		298.723,211.129 329.192,250.035 371.848,118.785 229.814,177.848 268.255,198.004 	"/>
	<g>
		<path style="fill:#FFFFFF;" d="M292.161,242.067c0,0-45.238,0-56.253,0c-42.891,6.562-47.344,68.905-0.469,77.343h56.722v-56.25
			c18.906,0.625,22.812,24.219,8.907,32.813c2.812,3.281,14.062,15.469,14.062,15.469
			C344.66,285.972,327.785,244.098,292.161,242.067z M271.549,298.316c0,0-29.063,0-31.407,0
			c-19.453,1.172-25.781-30.937-1.875-35.156c7.031,0,33.282,0,33.282,0V298.316z"/>
	</g>
	<path style="fill-rule:evenodd;clip-rule:evenodd;fill:#FFFFFF;" d="M409.817,270.191c-9.375,0-20.625,0-20.625,0l-8.906,20.625
		c0,0,23.907,0,26.251,0c5.273-0.235,5.507,7.5,0,7.968c-6.798,0-45.469,0-45.469,0V263.16h69.844v-21.093c0,0-9.726,0-10.312,0
		c-3.047-43.594-55.195-44.883-68.907-21.094c2.696,2.226,15.469,13.593,15.469,13.593c7.851-12.305,29.648-11.719,32.812,7.5
		h-59.532v77.343h67.032c15.234-0.235,22.266-11.484,23.906-21.094C432.317,282.847,422.942,272.535,409.817,270.191z"/>
	<path style="fill-rule:evenodd;clip-rule:evenodd;fill:#FFFFFF;" d="M209.189,242.067h-27.188
		c-8.672,10.546-23.672,53.202,6.094,85.311c0,0,12.891-11.015,15.469-13.124C194.423,305.348,179.189,269.019,209.189,242.067z"/>
	<path style="fill-rule:evenodd;clip-rule:evenodd;fill:#FFFFFF;" d="M139.986,328.124c0,9.41-7.629,17.04-17.041,17.04
		c-9.412,0-17.041-7.63-17.041-17.04c0-9.412,7.629-17.042,17.041-17.042C132.356,311.081,139.986,318.711,139.986,328.124z"/>
	<g>
		<g>
			<path style="fill-rule:evenodd;clip-rule:evenodd;fill:#FFFFFF;" d="M103.72,242.067c-42.891,6.562-47.344,68.905-0.469,77.343
				h0.313c3.327-7.389,10.75-12.537,19.38-12.537c8.63,0,16.053,5.148,19.38,12.537h17.646c0-2.579,0-77.343,0-77.343
				S114.736,242.067,103.72,242.067z M139.345,298.316c0,0-29.063,0-31.406,0c-19.453,1.172-25.781-30.937-1.875-35.156
				c7.031,0,33.281,0,33.281,0V298.316z"/>
		</g>
	</g>
	<g>
		<g>
			<g>
				<path style="fill-rule:evenodd;clip-rule:evenodd;fill:#FFFFFF;" d="M123.884,223.785c6.906-1.172,10.305-15.352-0.945-18.516
					c-1.289,0-18.281,0-18.281,0v26.953h7.5v-8.437l8.437,8.437h11.726L123.884,223.785z M122.991,214.26
					c0,0.975-0.798,1.773-1.772,1.773h-8.969v-3.746h8.969c0.975,0,1.772,0.798,1.772,1.772V214.26z"/>
			</g>
		</g>
		<g>
			<g>
				<path style="fill-rule:evenodd;clip-rule:evenodd;fill:#FFFFFF;" d="M145.373,204.844c-7.543,0-13.659,6.116-13.659,13.658
					c0,7.543,6.116,13.659,13.659,13.659c7.543,0,13.659-6.116,13.659-13.659C159.032,210.959,152.916,204.844,145.373,204.844z
					 M145.373,224.504c-3.315,0-6.002-2.687-6.002-6.002c0-3.314,2.688-6.002,6.002-6.002c3.315,0,6.003,2.688,6.003,6.002
					C151.376,221.817,148.688,224.504,145.373,224.504z"/>
			</g>
		</g>
		<path style="fill-rule:evenodd;clip-rule:evenodd;fill:#FFFFFF;" d="M222.859,212.604h12.276v-7.917h-10.389
			c-8.168,0-14.85,6.164-14.85,13.698c0,7.533,6.682,13.698,14.85,13.698h10.389v-7.917h-12.276c-1.801,0-3.406-0.861-4.438-2.187
			h16.714v-7.188h-16.714C219.452,213.465,221.058,212.604,222.859,212.604z"/>
		<g>
			<path style="fill-rule:evenodd;clip-rule:evenodd;fill:#FFFFFF;" d="M174.062,224.167c-3.094,0-5.625-2.531-5.625-5.625v-0.313
				c0-3.094,2.532-5.625,5.625-5.625h11.667v-7.917h-10.463c-8.167,0-14.85,6.164-14.85,13.698c0,7.533,6.682,13.698,14.85,13.698
				h10.463v-7.917H174.062z"/>
		</g>
		<polygon style="fill-rule:evenodd;clip-rule:evenodd;fill:#FFFFFF;" points="263.645,205.208 237.187,205.208 237.187,212.292 
			246.875,212.292 246.875,231.666 253.959,231.666 253.959,212.292 263.645,212.292 		"/>
		<polygon style="fill:#FFFFFF;" points="200.673,218.336 213.697,205.208 203.159,205.208 195.833,212.592 195.833,205.208 
			188.75,205.208 188.75,231.666 195.833,231.666 195.833,224.08 203.36,231.666 213.897,231.666 		"/>
	</g>
	<g>
		<path style="fill:#FFFFFF;" d="M307.207,332.526c-1.171,0.233-2.2,0.967-3.087,2.205c-0.854,1.175-1.281,2.367-1.281,3.575
			c0,0.727,0.15,1.431,0.451,2.111c0.38,0.867,0.895,1.3,1.545,1.3c0.332,0,0.76-0.178,1.283-0.536l0.736,1.966
			c-0.663,0.401-1.309,0.601-1.939,0.601c-0.852,0-1.672-0.315-2.46-0.949c-0.458-0.37-0.892-1.072-1.301-2.107
			c-0.206-0.509-0.308-1.273-0.308-2.293v-0.717c0-1.604,0.852-3.41,2.555-5.416c0.363-0.416,0.97-1.003,1.821-1.76h2.673v1.95
			C307.643,332.488,307.413,332.511,307.207,332.526z"/>
		<path style="fill:#FFFFFF;" d="M319.052,332.46v11.133h-2.226v-1.437c0-0.494-0.377-1.128-1.131-1.901
			c-0.566-0.587-1.163-1.096-1.79-1.53c-0.692-0.478-1.446-0.718-2.264-0.718c-0.832,0-1.437,0.358-1.815,1.072
			c-0.047,0.078-0.07,0.178-0.07,0.303c0,0.295,0.145,0.563,0.435,0.803c0.291,0.241,0.585,0.36,0.885,0.36
			c0.235,0,0.8-0.173,1.696-0.52l0.659,2.025c-0.994,0.507-1.822,0.76-2.484,0.76c-0.743,0-1.421-0.207-2.036-0.623
			c-0.615-0.415-1.065-0.961-1.349-1.639c-0.127-0.292-0.189-0.653-0.189-1.085c0-1.261,0.521-2.224,1.565-2.885
			c0.727-0.477,1.502-0.716,2.323-0.716c0.079,0,0.15,0,0.214,0c-0.016-0.39-0.222-0.827-0.616-1.31
			c-0.395-0.482-0.782-0.725-1.16-0.725h-2.465v-1.367h-0.993v-1.953h14.335v1.953H319.052z M316.826,332.46h-5.24
			c1.479,0.96,2.25,2.215,2.314,3.763c0.943,0.372,1.919,1.108,2.926,2.208V332.46z"/>
		<path style="fill:#FFFFFF;" d="M323.385,332.46v11.133h-2.226V332.46h-1.642v-1.953h5.353v1.953H323.385z"/>
		<path style="fill:#FFFFFF;" d="M334.122,332.46h-10.031v-1.953h13.886v1.953h-1.542v11.133h-1.967
			c-0.19-0.57-1.153-1.455-2.89-2.656c-0.712-0.492-1.69-0.97-2.938-1.431c-1.328-0.493-2.386-0.739-3.175-0.739l-0.593-2.217
			c0.52-0.416,1.955-1.132,4.305-2.148C330.17,333.969,331.818,333.323,334.122,332.46z M334.247,334.869
			c-0.413,0.14-0.856,0.301-1.332,0.486c-0.698,0.308-1.966,0.864-3.806,1.665l-0.428,0.185c1.76,0.617,3.441,1.526,5.043,2.73
			c0.206,0.155,0.38,0.285,0.523,0.393V334.869z"/>
		<path style="fill:#FFFFFF;" d="M340.77,332.46v11.133h-2.226V332.46h-1.64v-1.953h5.351v1.953H340.77z"/>
		<path style="fill:#FFFFFF;" d="M341.477,332.46v-1.953h6.576c0.016-0.077,0.024-0.131,0.024-0.163c0-1.02-0.481-1.693-1.443-2.017
			c-0.127-0.03-0.269-0.047-0.427-0.047c-0.237,0-0.528,0.047-0.875,0.141c-0.473,0.125-0.757,0.196-0.851,0.212
			c-0.379,0.063-0.71,0.18-0.993,0.352c-0.364,0.251-0.781,0.478-1.254,0.681l-0.709-1.651c0.851-0.588,1.97-1.092,3.359-1.51
			c0.584-0.171,1.135-0.256,1.656-0.256c0.552,0,1.175,0.2,1.869,0.601c1.182,0.71,1.797,1.929,1.845,3.656h1.278v1.953H341.477z
			 M349.213,345.468c-0.9-0.816-1.861-1.576-2.886-2.284c-0.489-0.338-1.302-0.715-2.437-1.13c-0.9-0.323-1.428-0.485-1.586-0.485
			l0.024-2.606c0.19,0,0.477,0.012,0.863,0.035c0.386,0.023,0.674,0.035,0.864,0.035c1.009,0,1.829-0.13,2.46-0.388
			c1.197-0.502,1.797-1.095,1.797-1.78c0-0.502-0.229-0.92-0.686-1.254c-0.442-0.259-0.892-0.509-1.349-0.753
			c-0.127-0.06-0.252-0.092-0.378-0.092c-0.268,0-0.56,0.069-0.875,0.206c-0.394,0.182-0.576,0.388-0.544,0.616
			c0.079,0.578,0.686,0.821,1.822,0.73l-1.207,1.847c-0.488,0.03-0.986-0.123-1.489-0.463c-0.915-0.615-1.373-1.371-1.373-2.264
			c0-0.894,0.465-1.587,1.396-2.08c0.757-0.416,1.625-0.624,2.603-0.624c0.426,0,0.793,0.07,1.1,0.208
			c0.308,0.138,0.62,0.292,0.935,0.462c1.515,0.769,2.272,1.938,2.272,3.506c0,1.123-0.465,2.03-1.396,2.722
			c-0.71,0.523-1.728,0.9-3.053,1.131c0.394,0.185,0.961,0.5,1.703,0.945c1.261,0.953,2.279,1.808,3.052,2.561L349.213,345.468z"/>
		<path style="fill:#FFFFFF;" d="M364.85,332.46v11.133h-2.226v-4.417c0-0.384-0.165-0.778-0.495-1.185
			c-0.331-0.406-0.685-0.609-1.063-0.609c-0.346,0-0.677,0.214-0.992,0.642c-0.315,0.429-0.472,0.917-0.472,1.467h-2.408
			c0-0.616-0.159-1.147-0.477-1.595c-0.317-0.446-0.681-0.671-1.094-0.671c-0.349,0-0.682,0.124-1,0.371
			c-0.317,0.248-0.491,0.533-0.523,0.857l-0.071,0.578v0.231c0,1.143,0.7,1.714,2.101,1.714c0.22,0,0.598-0.047,1.132-0.141
			l-0.78,2.25c-0.458,0.052-0.735,0.078-0.829,0.078c-1.042,0-2.003-0.385-2.887-1.157c-0.346-0.293-0.63-0.741-0.852-1.343
			c-0.205-0.539-0.307-1.065-0.307-1.574c0-1.203,0.371-2.18,1.113-2.927c0.743-0.749,1.714-1.123,2.915-1.123
			c1.121,0,2.061,0.534,2.819,1.601c0.821-1.067,1.705-1.601,2.653-1.601c0.521,0,1.027,0.236,1.516,0.709v-3.288h-12.031v-1.953
			h15.518v1.953H364.85z"/>
		<path style="fill:#FFFFFF;" d="M381.549,332.46h-10.031v-1.953h13.886v1.953h-1.542v11.133h-1.967
			c-0.19-0.57-1.153-1.455-2.89-2.656c-0.712-0.492-1.69-0.97-2.938-1.431c-1.328-0.493-2.386-0.739-3.175-0.739l-0.593-2.217
			c0.52-0.416,1.955-1.132,4.305-2.148C377.597,333.969,379.246,333.323,381.549,332.46z M381.674,334.869
			c-0.413,0.14-0.856,0.301-1.332,0.486c-0.698,0.308-1.966,0.864-3.806,1.665l-0.428,0.185c1.76,0.617,3.441,1.526,5.043,2.73
			c0.206,0.155,0.381,0.285,0.523,0.393V334.869z"/>
		<path style="fill:#FFFFFF;" d="M389.136,332.46c-0.703,0.974-1.054,1.777-1.054,2.411c0,0.294,0.358,1.47,1.078,3.525
			c0.374,1.036,0.563,1.894,0.563,2.574c0,1.299-0.725,2.203-2.176,2.713c-0.441,0.17-1.229,0.308-2.364,0.417l0.301-1.924
			c1.315-0.279,1.973-0.743,1.973-1.392c0-0.603-0.273-1.531-0.82-2.783c-0.547-1.252-0.821-2.172-0.821-2.759
			c0-0.758,0.316-1.686,0.951-2.783h-2.318v-1.953h6.21v1.953H389.136z"/>
		<path style="fill:#FFFFFF;" d="M393.899,332.46v11.133h-2.226V332.46h-1.64v-1.953h5.351v1.953H393.899z"/>
		<path style="fill:#FFFFFF;" d="M399.036,337.733c-1.042,0-1.877-0.328-2.509-0.983c-0.631-0.656-0.945-1.501-0.945-2.536
			c0-0.956,0.322-1.754,0.97-2.395c0.646-0.641,1.451-0.962,2.414-0.962c1.309,0,2.255,0.657,2.839,1.968
			c0.252,0.556,0.379,1.103,0.379,1.643c0,1.003-0.272,1.8-0.817,2.386C400.822,337.44,400.045,337.733,399.036,337.733z
			 M401.472,344.91c-2.823-2.375-4.739-3.803-5.748-4.281l0.023-3.077c3.88,2.776,6.419,4.991,7.617,6.641v2.29L401.472,344.91z
			 M399.501,333.204c-0.222-0.154-0.444-0.215-0.666-0.185c-0.842,0.14-1.261,0.556-1.261,1.249c0,0.355,0.138,0.682,0.416,0.982
			c0.278,0.301,0.591,0.451,0.941,0.451l0.309-0.047c0.634-0.2,0.951-0.585,0.951-1.156
			C400.191,333.96,399.96,333.528,399.501,333.204z"/>
		<path style="fill:#FFFFFF;" d="M417.365,329.204c-2.594-1.631-4.717-2.447-6.369-2.447c-1.95,0-3.381,0.619-4.292,1.852
			c-0.315,0.432-0.487,1.065-0.518,1.898h1.562v1.953h-1.562v11.133h-2.266V332.46h-1.485v-1.953h1.485
			c0.046-1.581,0.567-2.863,1.562-3.846c0.993-0.984,2.341-1.589,4.046-1.82c0.173-0.016,0.505-0.055,0.994-0.116h0.473
			c1.357,0,2.705,0.293,4.047,0.878c0.725,0.338,1.917,1.015,3.573,2.031L417.365,329.204z"/>
		<path style="fill:#FFFFFF;" d="M415.519,332.46v0.07c0.93,0.047,1.901,0.341,2.91,0.883c1.418,0.773,2.129,1.825,2.129,3.156
			c0,0.774-0.237,1.443-0.712,2.008c-0.475,0.565-1.095,0.936-1.862,1.114c-0.767,0.178-1.419,0.205-1.958,0.081v-2.104
			c0.252,0.031,0.487,0.046,0.708,0.046c1.117,0,1.675-0.401,1.675-1.202c0-0.957-0.964-1.558-2.89-1.804v8.886h-1.966
			c-0.316-0.616-0.631-1.093-0.947-1.432c-0.111-0.123-0.394-0.492-0.852-1.108c-0.142-0.201-0.403-0.455-0.781-0.763
			c-0.379-0.307-0.639-0.562-0.781-0.761c-0.064-0.093-0.237-0.193-0.521-0.301c-0.962-0.338-1.745-0.508-2.344-0.508l-0.593-2.217
			c0.493-0.355,1.597-1.016,3.316-1.987c0.127-0.092,0.651-0.4,1.574-0.924c0.333-0.2,0.889-0.523,1.668-0.97v-0.162h-7.031v-1.953
			h15.282v1.953H415.519z M413.292,335.03c-0.363,0.278-0.916,0.648-1.659,1.11c-0.19,0.078-0.407,0.235-0.651,0.474
			c-0.245,0.24-0.478,0.459-0.699,0.659c0.236,0.216,0.615,0.516,1.137,0.902c0.489,0.555,1.114,1.242,1.872,2.058V335.03z"/>
		<path style="fill:#FFFFFF;" d="M424.867,337.733c-1.042,0-1.878-0.328-2.509-0.983c-0.631-0.656-0.946-1.501-0.946-2.536
			c0-0.956,0.323-1.754,0.97-2.395c0.647-0.641,1.452-0.962,2.415-0.962c1.308,0,2.255,0.657,2.839,1.968
			c0.252,0.556,0.378,1.103,0.378,1.643c0,1.003-0.272,1.8-0.816,2.386C426.653,337.44,425.877,337.733,424.867,337.733z
			 M427.303,344.91c-2.824-2.375-4.74-3.803-5.749-4.281l0.024-3.077c3.879,2.776,6.417,4.991,7.616,6.641v2.29L427.303,344.91z
			 M425.332,333.204c-0.223-0.154-0.445-0.215-0.667-0.185c-0.841,0.14-1.26,0.556-1.26,1.249c0,0.355,0.138,0.682,0.416,0.982
			c0.277,0.301,0.591,0.451,0.939,0.451l0.309-0.047c0.635-0.2,0.952-0.585,0.952-1.156
			C426.022,333.96,425.792,333.528,425.332,333.204z"/>
	</g>
	<g>
		<polygon style="fill:#FFFFFF;" points="178.74,344.548 182.888,345.949 184.547,344.548 180.399,343.092 		"/>
		<g>
			<path style="fill:#FFFFFF;" d="M180.123,333.034v-2.511h-32.575v2.511h5.476v5.609c0,0,4.194,0,4.701,0
				c0,0,1.336-0.431,1.659-1.108c0,0.8,0,1.908,0,2.215c0,0.983-0.738,1.845-1.659,1.845c-0.922,0-6.499,0-6.913,0
				c-0.415,0-0.829-0.185-0.829-1.845c0-1.661,0-5.228,0-5.228h-2.435c0,0,0,6.15,0,6.705c0,0.553,0.349,2.509,2.101,2.509
				c1.751,0,9.001,0,9.369,0c1.46-0.049,2.498-1.535,2.578-2.787c0-2.706,0-6.427,0-6.427h-2.212
				c-0.231,0.983-0.092,1.66-1.106,1.907c-1.014,0-2.765,0-2.765,0v-3.395h8.019v10.701h2.766v-10.701h1.935v10.701
				c0,0,8.48,0,9.125,0c0.645,0,2.766-0.541,2.766-2.877c0-2.338,0-6.336,0-6.336h-2.212c0,0.615-0.092,1.538-1.106,1.538
				c-1.014,0-6.084,0-6.084,0v-3.026H180.123z M176.528,338.274c0.415,0.123,0.968-0.553,1.383-1.107c0,0.615,0,1.6,0,2.583
				c0,0.983-0.784,1.845-1.383,1.845c-0.599,0-5.807,0-5.807,0v-3.322C170.721,338.274,176.021,338.274,176.528,338.274z"/>
		</g>
		<rect x="183.164" y="336.061" style="fill:#FFFFFF;" width="5.53" height="2.952"/>
		<g>
			<path style="fill:#FFFFFF;" d="M191.749,330.523v2.511h9.113v1.488h-9.113c0,0,0,5.536,0,5.965
				c0.197,1.944,1.193,3.248,3.084,3.248c2.258,0,8.241,0,8.241,0v-10.701h1.936v10.701h2.488v-13.213H191.749z M200.862,341.964
				c0,0-5.301,0-5.53,0c-0.83-0.122-1.383-1.106-1.383-2.214c0-1.107,0-2.953,0-2.953h6.913V341.964z"/>
		</g>
		<path style="fill:#FFFFFF;" d="M219.443,333.034h11.283v1.488c-0.507,0-2.996,0-3.318,0c-0.139,1.045-1.844,1.611-2.212,0
			c-1.843,0-5.753,0-5.753,0s0,5.72,0,6.336c0,0.614,0.094,2.625,1.783,2.877c1.568,0,4.523,0,4.523,0v-2.14c0,0-2.489,0-3.041,0
			c-0.599-0.185-1.106-0.553-1.106-1.477c0-1.107,0-3.321,0-3.321h3.042v1.846h2.765v-1.476c-0.185-0.677,2.904-0.616,3.042,0
			c0,0.922,0,6.568,0,6.568h2.488v-10.701h1.659v10.701h2.489v-13.213h-17.643V333.034z"/>
		<g>
			<g>
				<path style="fill:#FFFFFF;" d="M215.517,331.261c-1.013,0-5.876,0-5.876,0s0,2.915,0,3.469c0.231,1.107,0.823,2.473,2.836,2.583
					c2.027,0,4.701,0,4.701,0v-4.279C217.039,332.308,216.532,331.385,215.517,331.261z M213.728,334.962
					c-1.061,0-1.92-0.388-1.92-0.866c0-0.477,0.86-0.865,1.92-0.865c1.06,0,1.919,0.388,1.919,0.865
					C215.648,334.573,214.789,334.962,213.728,334.962z"/>
			</g>
		</g>
		<polygon style="fill:#FFFFFF;" points="210.031,338.613 210.031,340.792 217.136,343.739 217.136,341.433 		"/>
		<g>
			<g>
				<path style="fill:#FFFFFF;" d="M275.094,331.261c-1.015,0-5.877,0-5.877,0s0,2.915,0,3.469c0.23,1.107,0.822,2.473,2.834,2.583
					c2.028,0,4.702,0,4.702,0v-4.279C276.615,332.308,276.108,331.385,275.094,331.261z M273.305,334.962
					c-1.061,0-1.922-0.388-1.922-0.866c0-0.477,0.86-0.865,1.922-0.865c1.059,0,1.919,0.388,1.919,0.865
					C275.224,334.573,274.364,334.962,273.305,334.962z"/>
			</g>
		</g>
		<polygon style="fill:#FFFFFF;" points="269.607,338.613 269.607,340.792 276.712,343.739 276.712,341.433 		"/>
		<path style="fill:#FFFFFF;" d="M290.181,334.522v-1.488h4.583v-2.511h-15.905v2.511h9.11v1.488h-9.11c0,0,0,5.536,0,5.965
			c0.197,1.944,1.193,3.248,3.082,3.248c2.258,0,8.24,0,8.24,0v-6.568h2.21c0.369,0,0.462-0.185,0.553,0.368
			c0,0.677,0,1.108,0,1.108c-0.138,0.553-0.185,0.923-0.553,1.107c-0.369,0-0.815,0-0.815,0v2.214h1.645
			c0.552-0.062,1.566-0.676,1.659-1.477c0-1.229,0-5.965,0-5.965H290.181z M287.969,341.964c0,0-5.299,0-5.529,0
			c-0.83-0.122-1.382-1.106-1.382-2.214c0-1.107,0-2.953,0-2.953h6.871l0.038,0.37h0.002V341.964z"/>
		<g>
			<path style="fill:#FFFFFF;" d="M244.534,330.523v2.511h9.11v1.488h-9.11c0,0,0,5.536,0,5.965
				c0.196,1.944,1.192,3.248,3.081,3.248c2.258,0,8.24,0,8.24,0v-10.701h2.881l-1.049,2.098v1.476c0,0,1.567,0,1.937,0
				c1.029,0.119,1.382,0.799,1.382,2.583c0,1.23-0.283,2.118-1.237,2.215c-0.6,0-1.805,0-1.805,0v2.214c0,0,1.383,0,1.937,0
				c0.552,0,3.087,0.246,3.318-2.214c0.276-4.984,0.507-6.274-3.042-6.644l0.518-1.729h3.898v10.701h2.488v-13.213H244.534z
				 M253.643,341.964c0,0-5.3,0-5.53,0c-0.829-0.122-1.382-1.106-1.382-2.214c0-1.107,0-2.953,0-2.953h6.912V341.964z"/>
		</g>
	</g>
</g>
</svg>
